HIERARCHY
ROOT hips
{
  OFFSET 0 11.86390953 0.3628582958
  CHANNELS 6 Xposition Yposition Zposition Yrotation Xrotation Zrotation
  JOINT spine
  {
    OFFSET 0 0.05383551117999996 0
    CHANNELS 3 Yrotation Xrotation Zrotation
    JOINT chest
    {
      OFFSET 0 0.6394558760401424 0
      CHANNELS 3 Yrotation Xrotation Zrotation
      JOINT neck
      {
        OFFSET 0 2.720089088562982 0
        CHANNELS 3 Yrotation Xrotation Zrotation
        JOINT head
        {
          OFFSET 0 0.37880844870545777 0
          CHANNELS 3 Yrotation Xrotation Zrotation
          JOINT rightEye
          {
            OFFSET -0.42867780714 0.7547055649100001 0.7381831347
            CHANNELS 3 Yrotation Xrotation Zrotation
            End Site
            {
              OFFSET -0.42867780714 0.7547055649100001 0.7381831347
            }
          }
          JOINT leftEye
          {
            OFFSET 0.428676479 0.7547055559999993 0.7381844503
            CHANNELS 3 Yrotation Xrotation Zrotation
            End Site
            {
              OFFSET 0.428676479 0.7547055559999993 0.7381844503
            }
          }
          JOINT jaw
          {
            OFFSET -0.18933892286100001 1.5626303011000007 1.137441874206
            CHANNELS 3 Yrotation Xrotation Zrotation
            End Site
            {
              OFFSET -0.18933892286100001 1.5626303011000007 1.137441874206
            }
          }
        }
      }
      JOINT rightShoulder
      {
        OFFSET -0.6795351508 2.0665205 0
        CHANNELS 3 Yrotation Xrotation Zrotation
        JOINT rightUpperArm
        {
          OFFSET -0.7287400483531672 0 0
          CHANNELS 3 Yrotation Xrotation Zrotation
          JOINT rightLowerArm
          {
            OFFSET -1.9872982039174532 0 0
            CHANNELS 3 Yrotation Xrotation Zrotation
            JOINT rightHand
            {
              OFFSET -2.6451847532219275 0 0
              CHANNELS 3 Yrotation Xrotation Zrotation
              JOINT rightLittleProximal
              {
                OFFSET -0.8008804099999995 -0.09592044000000044 -0.26183688629999996
                CHANNELS 3 Yrotation Xrotation Zrotation
                JOINT rightLittleIntermediate
                {
                  OFFSET -0.2473955153999997 -0.02541697026000067 0.002370178700999967
                  CHANNELS 3 Yrotation Xrotation Zrotation
                  JOINT rightLittleDistal
                  {
                    OFFSET -0.163687229200001 -0.015790700860001117 -0.0004274845300000635
                    CHANNELS 3 Yrotation Xrotation Zrotation
                    End Site
                    {
                      OFFSET -0.163687229200001 -0.015790700860001117 -0.0004274845300000635
                    }
                  }
                }
              }
              JOINT rightRingProximal
              {
                OFFSET -0.8393382799999985 -0.06223833561000025 -0.09213143500000005
                CHANNELS 3 Yrotation Xrotation Zrotation
                JOINT rightRingIntermediate
                {
                  OFFSET -0.3284497260000011 -0.03264224524000103 0.009408593183000052
                  CHANNELS 3 Yrotation Xrotation Zrotation
                  JOINT rightRingDistal
                  {
                    OFFSET -0.19447660429999902 -0.021730899850000318 0.003074347969000052
                    CHANNELS 3 Yrotation Xrotation Zrotation
                    End Site
                    {
                      OFFSET -0.19447660429999902 -0.021730899850000318 0.003074347969000052
                    }
                  }
                }
              }
              JOINT rightMiddleProximal
              {
                OFFSET -0.8473005199999989 -0.06735503500000095 0.10541820299999995
                CHANNELS 3 Yrotation Xrotation Zrotation
                JOINT rightMiddleIntermediate
                {
                  OFFSET -0.3450455799999995 -0.02481901642000084 0.019012570390000032
                  CHANNELS 3 Yrotation Xrotation Zrotation
                  JOINT rightMiddleDistal
                  {
                    OFFSET -0.23542332000000088 -0.025003910029999243 0.0075583457949999905
                    CHANNELS 3 Yrotation Xrotation Zrotation
                    End Site
                    {
                      OFFSET -0.23542332000000088 -0.025003910029999243 0.0075583457949999905
                    }
                  }
                }
              }
              JOINT rightIndexProximal
              {
                OFFSET -0.8008568281999987 -0.09897839600000169 0.29462796
                CHANNELS 3 Yrotation Xrotation Zrotation
                JOINT rightIndexIntermediate
                {
                  OFFSET -0.30524754480000016 -0.024634122809999992 0.02743375304999998
                  CHANNELS 3 Yrotation Xrotation Zrotation
                  JOINT rightIndexDistal
                  {
                    OFFSET -0.23067378950000017 -0.016876459159999913 0.008484125099999983
                    CHANNELS 3 Yrotation Xrotation Zrotation
                    End Site
                    {
                      OFFSET -0.23067378950000017 -0.016876459159999913 0.008484125099999983
                    }
                  }
                }
              }
              JOINT rightThumbProximal
              {
                OFFSET -0.25574064999999935 -0.12833189930000155 0.22385698609999993
                CHANNELS 3 Yrotation Xrotation Zrotation
                JOINT rightThumbIntermediate
                {
                  OFFSET -0.22791743260000086 -0.07103586192999978 0.27385039
                  CHANNELS 3 Yrotation Xrotation Zrotation
                  JOINT rightThumbDistal
                  {
                    OFFSET -0.13610267659999975 -0.03369390969999997 0.14246511509999996
                    CHANNELS 3 Yrotation Xrotation Zrotation
                    End Site
                    {
                      OFFSET -0.13610267659999975 -0.03369390969999997 0.14246511509999996
                    }
                  }
                }
              }
            }
          }
        }
      }
      JOINT leftShoulder
      {
        OFFSET 0.6795338396 2.0665205 0
        CHANNELS 3 Yrotation Xrotation Zrotation
        JOINT leftUpperArm
        {
          OFFSET 0.7287383950230443 0 0
          CHANNELS 3 Yrotation Xrotation Zrotation
          JOINT leftLowerArm
          {
            OFFSET 1.9872997282019604 0 0
            CHANNELS 3 Yrotation Xrotation Zrotation
            JOINT leftHand
            {
              OFFSET 2.6451820781302327 0 0
              CHANNELS 3 Yrotation Xrotation Zrotation
              JOINT leftLittleProximal
              {
                OFFSET 0.8008804099999995 -0.09592306899999814 -0.2618342639000001
                CHANNELS 3 Yrotation Xrotation Zrotation
                JOINT leftLittleIntermediate
                {
                  OFFSET 0.2473981400000007 -0.02542352681000093 0.0023609995859999455
                  CHANNELS 3 Yrotation Xrotation Zrotation
                  JOINT leftLittleDistal
                  {
                    OFFSET 0.1636846068000002 -0.015794634789999318 -0.00043272972159996703
                    CHANNELS 3 Yrotation Xrotation Zrotation
                    End Site
                    {
                      OFFSET 0.1636846068000002 -0.015794634789999318 -0.00043272972159996703
                    }
                  }
                }
              }
              JOINT leftRingProximal
              {
                OFFSET 0.8393409199999996 -0.062242267999998324 -0.0921281570000001
                CHANNELS 3 Yrotation Xrotation Zrotation
                JOINT leftRingIntermediate
                {
                  OFFSET 0.3284471036000003 -0.03264224524000103 0.009405970574000042
                  CHANNELS 3 Yrotation Xrotation Zrotation
                  JOINT leftRingDistal
                  {
                    OFFSET 0.1944779099999996 -0.021732211159998904 0.003073036670000001
                    CHANNELS 3 Yrotation Xrotation Zrotation
                    End Site
                    {
                      OFFSET 0.1944779099999996 -0.021732211159998904 0.003073036670000001
                    }
                  }
                }
              }
              JOINT leftMiddleProximal
              {
                OFFSET 0.8473005200000001 -0.06736028199999788 0.1054214809999999
                CHANNELS 3 Yrotation Xrotation Zrotation
                JOINT leftMiddleIntermediate
                {
                  OFFSET 0.3450455799999995 -0.024824261000000014 0.019013225990000007
                  CHANNELS 3 Yrotation Xrotation Zrotation
                  JOINT leftMiddleDistal
                  {
                    OFFSET 0.2354259489999998 -0.025005222000000327 0.0075590014499999705
                    CHANNELS 3 Yrotation Xrotation Zrotation
                    End Site
                    {
                      OFFSET 0.2354259489999998 -0.025005222000000327 0.0075590014499999705
                    }
                  }
                }
              }
              JOINT leftIndexProximal
              {
                OFFSET 0.8008594516999996 -0.09898495199999946 0.29463124239999994
                CHANNELS 3 Yrotation Xrotation Zrotation
                JOINT leftIndexIntermediate
                {
                  OFFSET 0.30524754480000016 -0.024632811499998963 0.02743047472
                  CHANNELS 3 Yrotation Xrotation Zrotation
                  JOINT leftIndexDistal
                  {
                    OFFSET 0.23067378950000017 -0.016876459159999913 0.008481502700000004
                    CHANNELS 3 Yrotation Xrotation Zrotation
                    End Site
                    {
                      OFFSET 0.23067378950000017 -0.016876459159999913 0.008481502700000004
                    }
                  }
                }
              }
              JOINT leftThumbProximal
              {
                OFFSET 0.25574326469999953 -0.12833321050000013 0.22385764169999997
                CHANNELS 3 Yrotation Xrotation Zrotation
                JOINT leftThumbIntermediate
                {
                  OFFSET 0.22804987480000094 -0.07138466829999968 0.273648441
                  CHANNELS 3 Yrotation Xrotation Zrotation
                  JOINT leftThumbDistal
                  {
                    OFFSET 0.13614857189999907 -0.033867001519998885 0.14238119169999996
                    CHANNELS 3 Yrotation Xrotation Zrotation
                    End Site
                    {
                      OFFSET 0.13614857189999907 -0.033867001519998885 0.14238119169999996
                    }
                  }
                }
              }
            }
          }
        }
      }
    }
  }
  JOINT rightUpperLeg
  {
    OFFSET -0.9749898906000001 -1.8495733739999998 0
    CHANNELS 3 Yrotation Xrotation Zrotation
    JOINT rightLowerLeg
    {
      OFFSET 0 -4.1566544686813165 0
      CHANNELS 3 Yrotation Xrotation Zrotation
      JOINT rightFoot
      {
        OFFSET 0.14539718599999998 -4.225553926 -0.3666210900000001
        CHANNELS 3 Yrotation Xrotation Zrotation
        JOINT rightToes
        {
          OFFSET 0.1706738473 -0.9584117400000015 1.0093348617
          CHANNELS 3 Yrotation Xrotation Zrotation
          End Site
          {
            OFFSET 0.1706738473 -0.9584117400000015 1.0093348617
          }
        }
      }
    }
  }
  JOINT leftUpperLeg
  {
    OFFSET 0.9749898906000001 -1.8495733739999998 0
    CHANNELS 3 Yrotation Xrotation Zrotation
    JOINT leftLowerLeg
    {
      OFFSET 0 -4.156653488267941 0
      CHANNELS 3 Yrotation Xrotation Zrotation
      JOINT leftFoot
      {
        OFFSET -0.14537357999999995 -4.225555399999999 -0.36661124279999996
        CHANNELS 3 Yrotation Xrotation Zrotation
        JOINT leftToes
        {
          OFFSET -0.17066467000000002 -0.9584157000000019 1.0093348617
          CHANNELS 3 Yrotation Xrotation Zrotation
          End Site
          {
            OFFSET -0.17066467000000002 -0.9584157000000019 1.0093348617
          }
        }
      }
    }
  }
}
MOTION
Frames: 4
Frame Time: 0.03333333333333333
-0.08904579281806946 -0.31513385708740316 -0.26720401644706726 -2.9047285331844095 -0.04829057373235529 -6.276642445322508 -0.41932596384126875 2.557332484880296 2.3513823665098155 1.8605166289220196 2.3525435465374676 11.615470529295063 0.9724556433253687 0.7772197490229173 -2.9392909363487205 1.1314465864868468 15.74450884870608 -4.4531507972488695 0 0 0 0 0 0 0 0 0 4.305132443268794 4.392714807666908 6.58278797167364 37.167471315987854 4.485144555765415 19.774279472800455 135.69438051104234 1.2697621431143022 -0.5169256827188616 28.922248791644638 -31.551697795615596 10.05636259340956 -27.057189351350775 -5.680788845844309 -13.84869518842965 -2.4138676610755483 0.38950766439184553 31.20807216351639 2.921296993881713 0.359018836709217 -9.355401740856642 -16.546698491479248 -2.382062563492043 -10.488836056515545 -3.2437702085651696 1.347963245905235 37.07242209336943 1.4557018916305662 -0.11996570365947475 4.35890505115898 -5.074735160621921 0.24496801555360537 -2.7104583892440757 -3.7415614741728747 0.9380733025284014 36.80410247948042 0.017709712176453313 -0.0022717188758212973 -1.9879822213906793 6.2987530278232615 0.3395386951018276 -0.14832597255633256 -2.534599999629555 0.33641252182674286 20.579155454013527 -0.04921628690223717 -0.21470780589653768 13.843510440794423 6.7771943824596095 -38.77431931072187 -20.970536038166927 -32.2484806040982 -3.5821822450106016 2.449166312133828 -19.87460190802916 14.63870096357055 -1.929103149757745 -0.6484141155761881 6.372575303855061 -1.1978113140299511 26.158066064734392 -2.976157270815289 -83.24997306340863 -5.552982929775079 0.0034804833097845343 0.07161100982118818 6.007900309575689 -21.415389366733113 10.22550311475977 12.519314321758221 0.0876125181431058 0.19650994315684292 0.6554880512531042 0.025183695353306976 -9.811459453655932 2.5754470693652673 0.5118481644413033 -20.56391975375284 8.544450991030997 0.4080724349125588 -4.632998417476449 0.7184674419000889 0.05944618858059542 -4.375202379838716 1.590043801635363 0.5034909932100831 -19.35383619866519 0.5250068778492509 -0.24415964462906486 -6.117182128894357 1.6088427050303657 0.07854685988281485 -9.040243726683368 0.31882049996602296 0.006078131742812694 -0.45963306959081107 -7.623736459199854 0.368560830008473 -0.15346866198119483 1.6030742702005063 0.0833277769598587 -9.139008449448761 0.6785189111900274 0.02293062985779312 -10.17900883256712 4.2493811353637545 0.18054254236200248 9.992249676132678 23.411506108854184 -1.994614899698249 -4.717853765882592 -7.521045069223114 -2.5252028392909867 -3.471124471000832 -3.9307354974224697 -3.9253586465511643 12.196427937401888 -5.619226390013713 11.91871749978339 2.8003238535769586 4.424922049522964 -7.438409111358082 -9.581165452715497 -4.859276097451883e-7 -0.46641091525200007 -7.762124611747169e-7 11.005018776275389 -20.675991473732427 13.593526662507907 10.474451201282504 20.692053186771993 6.322765188624613 7.145591704549493 0.9523461779339774 -9.72005595984124 -0.000005079880271682421 -1.0600556758478712 -0.000001970136177633585
-0.07824729382991791 -0.31034068997314534 -0.225896418094635 -1.163351921789526 -0.351083605355012 -6.326844483312574 -0.08284804828376902 2.3098532565840606 2.657201760451126 2.0791673304711913 2.2066128755341037 11.762960619409256 0.327691197047597 -0.10254389922833891 -2.7136355973513417 -1.3143376558809514 9.749816501332607 -4.857067340717152 0 0 0 0 0 0 0 0 0 4.3620322030833725 4.379156022673074 6.520616926536877 37.10632184785854 4.403790988140464 19.897545819096017 134.8810765655098 1.2623714615257968 -0.5243866545326765 30.128134336201555 -31.437328640676874 10.024845773833858 -27.057189351350775 -5.680785413894798 -13.848676872981574 -2.4150298779781525 0.3900247963827674 31.22234342815545 2.918608081237655 0.35693884342671156 -9.322189173585858 -16.54670274142801 -2.3820636316320907 -10.488831855348012 -3.243945346978531 1.3481249740503638 37.075189795209425 1.4544642826747995 -0.12018572427932472 4.373055755522368 -5.088734666084701 0.24410014673799987 -2.6920925298343183 -3.7413155933373408 0.9378931321461902 36.80032829686928 0.016075524428746976 -0.002340588977284169 -1.9691609051593355 6.216031700905593 0.002166967352701574 1.645963416111785 -2.5345895509540424 0.33640638522288424 20.579006361381037 -0.04923213518098252 -0.21471544989238728 13.843413533048345 6.858414936431751 -38.74139017450035 -21.099686204777427 -32.2818560428339 -3.5803015510902707 2.37492251033418 -19.93531080509368 14.705291296303658 -1.9669689670581412 -0.14003186365311407 6.337995848457321 -0.7703783987064232 24.096679521667017 -3.6728917509723296 -84.4264454119225 -5.964644295712218 0.003986231638214818 0.076895239413832 5.64236873723642 -21.56212819649819 6.685916633079878 10.554725954410573 0.07080642803374886 0.7910516167007627 0.9055632468200745 0.060550411995330594 -12.696903729713332 2.5755987740806097 0.5119519554425747 -20.565983920808055 7.5998418734969375 0.3881183025551011 -4.969428970776501 0.9761342586561553 0.11583209643808362 -7.403573579665714 1.5900412412017266 0.5034977169371573 -19.35393016298136 0.812071646125826 -0.3160822407971271 -7.180600730366106 1.8282130850414975 0.11342386296656762 -11.593225879220858 0.42638069348179874 0.011741637211598504 -1.6986093592719043 -5.2611332375356294 0.2283014113633453 -0.8504294942411157 1.707137159385098 0.10132831039520583 -10.338833089382236 0.6785000227708085 0.02294499560105851 -10.178993943330807 4.950240230357178 1.1442561177107566 12.537537355257342 26.017902050985548 -1.066168253245243 -4.270007104055856 -5.833744591211262 -2.0313588067386554 -3.197457786906982 -3.9847877232886257 -3.1447653868132015 12.262934292252563 -5.770316512591235 11.405179997039362 2.7268627104549634 3.01702472816153 -7.648303135205956 -9.330012169130889 -0.0000033825414084615403 -0.5677675929031009 0.000002431584372274285 11.060390016217633 -20.511013536283613 13.438008365880638 10.361709605060659 20.69252228735335 6.301866572803255 5.542152094198785 0.7131960346203682 -9.480069798907165 0.000013111182601277633 -1.0425982952968618 -4.887210907584339e-7
-0.07254365086555481 -0.3080490105908211 -0.20029333233833313 0.2979869215940895 -0.5866204586925806 -6.384608690487627 0.23865208057837095 2.1850072097395707 2.966044802559661 2.2672161100388344 2.15850560947899 11.798396331209963 -0.1423160443625108 -0.5731986629186916 -2.5849505343516777 -3.299790569446435 6.179781241457561 -4.9173107358205 0 0 0 0 0 0 0 0 0 4.0702053920996475 4.40832040992415 6.088439646031143 36.742009354296094 4.410963406007605 20.241088863394978 134.32199078122196 1.2572291137887097 -0.5294515997958721 30.85256535933342 -31.41603302814493 9.539273800557478 -26.380173540547673 -5.3650983701412525 -13.236881600847829 -2.4152058910249856 0.39007418299650165 31.224539225209842 2.919033934485968 0.35727617061024186 -9.327538954186243 -16.16045384686154 -2.1560977553252862 -9.855635677397553 -3.244250027394156 1.3484022070739703 37.079824739882305 1.4545818323566986 -0.12014483643587297 4.371809837407287 -5.003374677722993 0.24914087304265287 -2.6830298793058054 -3.7415580659005325 0.9380882455699967 36.80415371273253 0.01626060821081878 -0.0023410158641076514 -1.971382627393306 6.129038838593232 -0.15696598762053246 3.001286545742337 -2.534842051673912 0.33649232435814286 20.582070164895693 -0.04938147652613777 -0.21470429739582614 13.845148812848462 5.854796718651883 -38.59249851505077 -19.820049341545662 -31.961055636589503 -3.520514638378487 3.0194930741686896 -19.342312527274824 13.884484714449366 -1.493002743742428 -0.2790247911611837 6.370838672985912 -1.013175133801499 22.581064544842786 -4.157940388174781 -84.63843095179254 -6.413335748555935 0.004627072554754601 0.08267222082117665 5.461106461560982 -21.846210724741034 4.360419961051808 9.736763805525033 0.09181839904450946 -0.152426266248875 1.141587167548898 0.1058720811592616 -15.44278033684967 2.5756142805668407 0.5119531294282027 -20.56619257632337 7.223666199491717 0.3986539576083991 -5.910291707058256 1.2134472036541795 0.18062956100507427 -10.227564178629834 1.590031118071852 0.503501398978177 -19.353881003801853 1.247518935047377 -0.34587023364196207 -8.07293524027908 2.013953061777159 0.15087807930403432 -13.771021530602749 0.5180255592734275 0.01839017793431658 -2.755463879663115 -3.605311148614774 0.14981442042118795 -1.4850886582165685 1.7956027254190643 0.11841185894163504 -11.362276636786417 0.678506158839215 0.022945747655639247 -10.178997304673649 5.150433968927595 2.248356810874619 13.96851818283289 27.671371391631325 -0.4892911906723179 -3.964877905454295 -4.392965716771618 -1.6166139743249892 -2.952646431997811 -4.048496954632134 -2.578434840561665 12.335490334331551 -5.9339632417523385 11.029389635330764 2.7191241704420848 1.8783077753353001 -7.796839217233409 -9.181312848013457 0.0000081085416145982 -0.6264243897639415 5.574527599286105e-7 11.10979087632439 -20.447135444800875 13.235340271777424 9.651434108621915 20.72526982533697 6.215579703363211 4.779034224442916 0.5966076348093416 -9.326392230911555 -0.0000021786538898020757 -1.0090205058923392 0.000002277943509473932
-0.06959518790245056 -0.30721454556396566 -0.18829679489135742 1.0645843743634305 -0.7084387085676809 -6.422747931698018 0.37585330724449795 2.1451045066187686 3.110790050886448 2.344098890606177 2.146571891848399 11.803054088692095 -0.3699019628991151 -0.7857383742545455 -2.519955944453455 -4.281479517964369 4.585714287258182 -4.893736247566359 0 0 0 0 0 0 0 0 0 3.893664663122827 4.425797412260952 5.85723410182228 36.42898695581544 4.514537095497088 20.37549125761396 134.0551624918219 1.2547677333198066 -0.5318629546011442 30.62872075165621 -31.625658134187653 9.023930306901208 -24.564398037772843 -4.627286051414297 -11.713034608417402 -2.415397402625367 0.39017207575035184 31.22691309383716 2.9205040829290625 0.35839178103822084 -9.345533983995281 -15.116592346173666 -1.6250103554968534 -8.287106520019375 -3.2448811109867206 1.3490039640382585 37.09001901770554 1.4550371148172971 -0.1200646082172844 4.366379873561288 -4.780467205865877 0.26223831810924614 -2.6637609921095904 -3.7422125924118714 0.9385453959376434 36.813029363523086 0.017004967077372538 -0.0023115085630797494 -1.9798295170785407 6.075779589496531 -0.23464585510695962 3.724542596991975 -2.535385311625509 0.3366933648405084 20.588656246581255 -0.049707436796509075 -0.21470061547112593 13.848885238175603 3.309948420043014 -38.10604048859329 -16.542521553667534 -31.137425500388048 -3.3999913542896185 4.696728644813052 -17.84356600865069 11.734784436846924 -0.3433786065623174 -0.4380487416489692 6.397361271672285 -1.2302333189589485 21.785148487272107 -4.383397585254955 -84.60342439548134 -6.6826061431376536 0.005014113412999855 0.08612547643046864 5.397308510092293 -22.01961590406412 3.21432828094354 9.529942686844354 0.04252312416504907 -1.0724610220551622 1.2761544272309882 0.13701088386260404 -17.020688421151725 2.5755904578649527 0.5119348259250255 -20.565845616948817 7.137628227856557 0.4105074594799978 -6.606767079222201 1.3473457078871276 0.22281632674757618 -11.839018756523977 1.5900408144627864 0.5034885385160737 -19.35384538605471 1.5383829265062179 -0.3496232249110051 -8.557030436255394 2.1149012464520394 0.17432934827756574 -14.962020835217112 0.5680982241684874 0.0227468350555159 -3.3334666584422927 -2.8000596853254076 0.12023509651712734 -1.8430892803163854 1.8438379057157144 0.12843319712050005 -11.921981635064732 0.6785006096990914 0.022941190304931657 -10.178998145009347 5.1588257764825105 2.9357496817689 14.537141569883676 28.41646327811111 -0.23260137039340123 -3.822166281582342 -3.604358570286055 -1.392464515768685 -2.8143817222216123 -4.09366820267768 -2.2920988055916998 12.380592657791679 -5.995208092901077 10.84022161826126 2.7293226053480284 1.2672278586405 -7.8701202809861135 -9.113086776664112 0.000004340856782830636 -0.6554218514328397 -0.000002604540737214113 11.127530839186456 -20.426043010048904 13.108184224223356 9.078731356156005 20.762498425323116 6.146057230876067 4.5796519615658084 0.5473979902894317 -9.262922741037134 -0.00003755599289143902 -0.9798033861792961 -0.0000023843212111158387
